<svg width="512" height="512" viewBox="0 0 512 512" xmlns="http://www.w3.org/2000/svg">
    <rect width="512" height="512" fill="#4A90E2"/>
    <g transform="translate(100,100)">
        <rect x="20" y="20" width="300" height="200" rx="20" fill="white" stroke="#2C3E50" stroke-width="10"/>
        <rect x="40" y="40" width="260" height="160" rx="15" fill="#F5A623" stroke="#D68910" stroke-width="8"/>
        <circle cx="170" cy="120" r="40" fill="white" stroke="#2C3E50" stroke-width="8"/>
        <line x1="170" y1="80" x2="170" y2="160" stroke="#2C3E50" stroke-width="8"/>
        <line x1="130" y1="120" x2="210" y2="120" stroke="#2C3E50" stroke-width="8"/>
    </g>
    <g transform="translate(150,250)">
        <rect x="0" y="0" width="280" height="160" rx="15" fill="white" stroke="#34495E" stroke-width="8"/>
        <rect x="20" y="20" width="240" height="120" rx="10" fill="#E74C3C" stroke="#C0392B" stroke-width="6"/>
    </g>
    <g transform="translate(200,350)">
        <circle cx="40" cy="40" r="40" fill="yellow" stroke="gold" stroke-width="8"/>
        <line x1="40" y1="0" x2="40" y2="20" stroke="gold" stroke-width="6"/>
        <line x1="40" y1="80" x2="40" y2="100" stroke="gold" stroke-width="6"/>
        <line x1="0" y1="40" x2="20" y2="40" stroke="gold" stroke-width="6"/>
        <line x1="80" y1="40" x2="100" y2="40" stroke="gold" stroke-width="6"/>
    </g>
</svg>
